<svg xmlns="http://www.w3.org/2000/svg" width="867.5" height="308" viewBox="25.25 -54.75 867.5 308">
	<g fill="none" stroke="#B17F4A" stroke-width="2.459" stroke-miterlimit="10">
		<path
			d="M128.073 86.349c-.953 58.811 34.735 100.604 79.116 100.604M128.243 87.332c-.953-58.81 35.148-101.587 79.529-101.587M728.927 86.305c.952 58.811-34.736 100.604-79.117 100.604M728.756 87.289c.954-58.811-35.147-101.587-79.528-101.587M207.772-14.255h442.124M207.189 186.953l442.621-.044" />
	</g>
	<path fill="#FFC" stroke="#FFC" d="M379.75 11.027h315.5v148.241h-315.5z" />
	<g fill="none">
		<ellipse stroke="red" cx="212.313" cy="66.706" rx="8.103" ry="3.241" />
		<ellipse stroke="red" cx="212.313" cy="69.706" rx="8.103" ry="3.241" />
		<ellipse stroke="red" cx="212.313" cy="73.706" rx="8.103" ry="3.241" />
		<ellipse stroke="red" cx="212.313" cy="77.706" rx="8.103" ry="3.241" />
		<ellipse stroke="red" cx="212.313" cy="81.706" rx="8.103" ry="3.241" />
		<ellipse stroke="red" cx="212.313" cy="85.706" rx="8.103" ry="3.241" />
		<ellipse stroke="red" cx="212.313" cy="89.706" rx="8.103" ry="3.241" />
		<ellipse stroke="red" cx="212.313" cy="93.706" rx="8.103" ry="3.241" />
		<ellipse stroke="red" cx="212.313" cy="97.706" rx="8.103" ry="3.242" />
		<ellipse stroke="red" cx="212.313" cy="101.706" rx="8.103" ry="3.242" />
		<ellipse stroke="red" cx="212.313" cy="105.706" rx="8.103" ry="3.242" />
		<path stroke="#000" d="M212.313 59.465H86.877" />
		<ellipse stroke="red" cx="212.313" cy="62.706" rx="8.103" ry="3.241" />
		<path stroke="#000" d="M212.313 112.947H86.877" />
		<ellipse stroke="red" cx="212.313" cy="109.706" rx="8.103" ry="3.242" />
	</g>
	<g opacity=".6">
		<path fill="none" stroke="#000" stroke-width=".5"
			d="M164.728 51.54c2.358 0 3.854 20.654 3.854 34.667 0 14.012-1.61 34.667-3.854 34.667" />
		<linearGradient id="prefix__a" gradientUnits="userSpaceOnUse" x1="725.949" y1="-378.172" x2="725.949" y2="-308.838"
			gradientTransform="matrix(1 0 0 -1 -522.701 -257.298)">
			<stop offset="0" stop-color="#404041" />
			<stop offset=".715" stop-color="#f1f1f2" />
			<stop offset="1" stop-color="#6d6e70" />
		</linearGradient>
		<path opacity=".8" fill="url(#prefix__a)" stroke="#000" stroke-width=".5"
			d="M245.617 120.873h-80.888c-2.354 0-3.852-19.545-3.852-34.667s1.498-34.667 3.852-34.667h80.888v69.334z" />
		<ellipse fill="#A6A8AB" stroke="#000" stroke-width=".5" cx="245.617" cy="86.206" rx="3.854" ry="34.667" />
		<ellipse fill="#FFF" stroke="#000" stroke-width=".5" cx="245.619" cy="86.206" rx="1.541" ry="13.868" />
	</g>
	<linearGradient id="prefix__b" gradientUnits="userSpaceOnUse" x1="813.517" y1="-385.105" x2="813.517" y2="-301.903"
		gradientTransform="matrix(1 0 0 -1 -522.701 -257.298)">
		<stop offset="0" stop-color="#404041" />
		<stop offset=".715" stop-color="#f1f1f2" />
		<stop offset="1" stop-color="#6d6e70" />
	</linearGradient>
	<path fill="url(#prefix__b)" stroke="#000" stroke-width=".5"
		d="M295.619 44.606v83.201h-4.983c-2.554 0-4.622-18.627-4.622-41.602 0-22.976 2.068-41.601 4.622-41.601l4.983.002z" />
	<ellipse fill="#A6A8AB" stroke="#000" stroke-width=".5" cx="295.619" cy="86.206" rx="4.621" ry="41.601" />
	<linearGradient id="prefix__c" gradientUnits="userSpaceOnUse" x1="818.32" y1="-357.373" x2="818.32" y2="-329.637"
		gradientTransform="matrix(1 0 0 -1 -522.701 -257.298)">
		<stop offset="0" stop-color="#6d6e70" />
		<stop offset=".285" stop-color="#a6a8ab" />
		<stop offset="1" stop-color="#404041" />
	</linearGradient>
	<ellipse fill="url(#prefix__c)" stroke="#000" stroke-width=".5" cx="295.619" cy="86.206" rx="1.541" ry="13.868" />
	<g fill="none">
		<g stroke="#1A171B">
			<circle cx="81.194" cy="99.776" r="4.5" />
			<circle cx="81.194" cy="72.776" r="4.5" />
			<path d="M81.194 68.276v-8.742h7.5M81.194 104.276v8.74h7.5" />
		</g>
		<g stroke="#1A171B">
			<circle cx="192.823" cy="210.911" r="4.5" />
			<circle cx="219.823" cy="210.911" r="4.5" />
			<path d="M224.323 210.911h18M188.323 210.911h-18" />
		</g>
		<path stroke="#231F20" d="M294.76 127.611v83.3h-52.437M124.885 113.722v97.189h45.438" />
	</g>
	<path fill="none" stroke="#1A171B" stroke-width="2" d="M134.38 21.75c25.788 0 45.783 28.281 61.643 49.464" />
	<path fill="#1A171B" d="M185.491 70.877l.344-1.972 9.713 1.703.988-9.813 1.992.202-1.206 11.951z" />
	<path
		d="M33.185 12.474v5.078h5.87v-5.078h1.584V24.61h-1.584v-5.69h-5.87v5.689H31.6V12.474h1.585zM51.186 20.18c0 3.223-2.25 4.627-4.339 4.627-2.34 0-4.177-1.729-4.177-4.483 0-2.899 1.927-4.609 4.321-4.609 2.503 0 4.195 1.818 4.195 4.465zm-6.896.09c0 1.909 1.081 3.349 2.629 3.349 1.512 0 2.646-1.422 2.646-3.385 0-1.476-.738-3.331-2.611-3.331-1.854.001-2.664 1.729-2.664 3.367zM55.091 13.806v2.088h2.269v1.207h-2.269v4.7c0 1.08.306 1.692 1.188 1.692.432 0 .685-.036.918-.108l.072 1.207a4.32 4.32 0 01-1.405.216c-.738 0-1.333-.252-1.71-.667-.432-.486-.612-1.26-.612-2.287v-4.753h-1.35v-1.207h1.35v-1.62l1.549-.468zM71.472 24.232c-.558.288-1.729.576-3.205.576-3.421 0-5.978-2.161-5.978-6.158 0-3.817 2.575-6.374 6.338-6.374 1.494 0 2.466.324 2.881.54l-.396 1.278c-.576-.288-1.422-.504-2.431-.504-2.845 0-4.735 1.819-4.735 5.006 0 2.989 1.71 4.879 4.646 4.879.972 0 1.944-.198 2.575-.504l.305 1.261zM79.391 22.521c0 .756.036 1.495.126 2.089h-1.422l-.126-1.098h-.054c-.486.684-1.422 1.296-2.665 1.296-1.765 0-2.665-1.243-2.665-2.503 0-2.106 1.873-3.259 5.239-3.241v-.18c0-.702-.198-2.017-1.98-1.999-.828 0-1.674.234-2.287.648l-.36-1.063c.72-.45 1.783-.756 2.881-.756 2.665 0 3.313 1.818 3.313 3.547v3.26zm-1.53-2.359c-1.729-.036-3.691.27-3.691 1.962 0 1.044.684 1.513 1.476 1.513 1.152 0 1.891-.72 2.143-1.458.054-.18.072-.36.072-.504v-1.513zM83.782 13.806v2.088h2.269v1.207h-2.269v4.7c0 1.08.306 1.692 1.188 1.692.432 0 .685-.036.918-.108l.072 1.207a4.318 4.318 0 01-1.404.216c-.738 0-1.332-.252-1.71-.667-.432-.486-.612-1.26-.612-2.287v-4.753h-1.35v-1.207h1.35v-1.62l1.548-.468zM87.832 11.826h1.584v5.456h.036c.252-.45.648-.864 1.134-1.134a3.247 3.247 0 011.62-.432c1.17 0 3.043.72 3.043 3.709v5.186h-1.584v-5.005c0-1.405-.522-2.575-2.017-2.575-1.026 0-1.818.72-2.125 1.566-.09.234-.108.468-.108.756v5.258h-1.584V11.826zM105.708 20.18c0 3.223-2.25 4.627-4.339 4.627-2.34 0-4.177-1.729-4.177-4.483 0-2.899 1.927-4.609 4.321-4.609 2.502 0 4.195 1.818 4.195 4.465zm-6.896.09c0 1.909 1.081 3.349 2.629 3.349 1.512 0 2.646-1.422 2.646-3.385 0-1.476-.738-3.331-2.611-3.331-1.854.001-2.664 1.729-2.664 3.367zM115.212 11.826v10.533c0 .774.036 1.656.072 2.25h-1.404l-.072-1.513h-.054c-.468.973-1.513 1.711-2.935 1.711-2.106 0-3.745-1.783-3.745-4.43-.018-2.898 1.801-4.663 3.907-4.663 1.351 0 2.233.63 2.629 1.314h.036v-5.204h1.566zm-1.567 7.616a2.81 2.81 0 00-.072-.667c-.234-.99-1.098-1.818-2.287-1.818-1.639 0-2.611 1.44-2.611 3.349 0 1.765.882 3.223 2.575 3.223 1.063 0 2.035-.721 2.323-1.891.054-.216.072-.432.072-.685v-1.511zM118.738 20.54c.036 2.143 1.386 3.025 2.989 3.025 1.134 0 1.836-.198 2.413-.45l.288 1.134c-.558.252-1.53.559-2.917.559-2.683 0-4.286-1.783-4.286-4.412 0-2.628 1.548-4.681 4.087-4.681 2.863 0 3.601 2.484 3.601 4.087 0 .324-.018.559-.054.738h-6.121zm4.645-1.134c.018-.99-.414-2.557-2.196-2.557-1.621 0-2.305 1.458-2.431 2.557h4.627z" />
	<path fill="#E30613" stroke="#E30613" stroke-width="7.622" stroke-miterlimit="10" d="M379.75 11.027h315.5" />
	<path fill="#1D71B8" stroke="#1D71B8" stroke-width="7.622" stroke-miterlimit="10" d="M379.75 159.268h315.5" />
	<path fill="#E30613" stroke="#E30613" stroke-width="3" stroke-miterlimit="10" d="M537.5 9.674v-40.927" />
	<path fill="#1D71B8" stroke="#1D71B8" stroke-width="3" stroke-miterlimit="10" d="M537.5 200.195v-40.927" />
	<path fill="#E30613" stroke="#E30613" stroke-width="5" stroke-miterlimit="10"
		d="M785.76 56.105h23M798.494 44.605v23" />
	<path fill="#1D71B8" stroke="#1D71B8" stroke-width="5" stroke-miterlimit="10" d="M786.994 113.722h23" />
	<circle fill="none" stroke="#E30613" stroke-width="2" stroke-miterlimit="10" cx="764.087" cy="56.747" r="6.5" />
	<ellipse fill="none" stroke="#1D71B8" stroke-width="2" stroke-miterlimit="10" cx="764.087" cy="112.695" rx="8.022"
		ry="6.5" />
	<path
		d="M484.369 72.256a18.154 18.154 0 013.007-.234c1.548 0 2.683.36 3.403 1.008.648.576 1.063 1.459 1.063 2.539 0 1.099-.324 1.963-.938 2.593-.846.883-2.178 1.332-3.709 1.332-.468 0-.9-.018-1.26-.107v4.861h-1.566V72.256zm1.566 5.852c.342.09.773.126 1.297.126 1.891 0 3.043-.937 3.043-2.575 0-1.62-1.152-2.395-2.863-2.395-.685 0-1.207.054-1.477.126v4.718zM493.801 71.463h1.585v12.784h-1.585V71.463zM504.171 82.158c0 .757.036 1.495.126 2.089h-1.422l-.127-1.099h-.053c-.486.685-1.424 1.297-2.666 1.297-1.764 0-2.664-1.242-2.664-2.503 0-2.106 1.873-3.259 5.239-3.241v-.18c0-.702-.198-2.017-1.98-1.999-.828 0-1.675.234-2.286.648l-.361-1.063c.721-.45 1.783-.756 2.881-.756 2.666 0 3.313 1.818 3.313 3.547v3.26zM502.64 79.8c-1.729-.036-3.691.27-3.691 1.963 0 1.044.685 1.512 1.477 1.512 1.152 0 1.891-.72 2.143-1.458.055-.18.072-.36.072-.504V79.8zM508.562 73.445v2.088h2.268v1.207h-2.268v4.699c0 1.08.305 1.692 1.188 1.692.432 0 .685-.036.918-.108l.072 1.207a4.346 4.346 0 01-1.404.216c-.738 0-1.332-.252-1.711-.666-.432-.486-.611-1.261-.611-2.287V76.74h-1.351v-1.207h1.351v-1.62l1.548-.468zM513.385 80.178c.036 2.143 1.386 3.025 2.989 3.025 1.134 0 1.836-.198 2.412-.45l.288 1.134c-.558.252-1.53.559-2.917.559-2.683 0-4.285-1.782-4.285-4.411s1.549-4.682 4.088-4.682c2.862 0 3.601 2.484 3.601 4.087 0 .324-.019.559-.054.738h-6.122zm4.646-1.134c.018-.99-.414-2.558-2.197-2.558-1.62 0-2.305 1.459-2.43 2.558h4.627zM525.39 72.292c.955-.162 2.09-.271 3.332-.271 2.25 0 3.854.54 4.915 1.513 1.099.99 1.729 2.395 1.729 4.357 0 1.98-.63 3.601-1.747 4.717-1.152 1.135-3.024 1.747-5.383 1.747-1.135 0-2.053-.055-2.846-.145V72.292zm1.568 10.731c.396.055.972.072 1.585.072 3.366 0 5.167-1.873 5.167-5.149.019-2.863-1.603-4.682-4.915-4.682-.811 0-1.423.072-1.837.162v9.597zM539.09 73.084c0 .54-.379.972-1.008.972-.576 0-.955-.432-.955-.972s.396-.99.99-.99c.576 0 .973.432.973.99zm-1.765 11.163v-8.715h1.585v8.715h-1.585zM541.32 82.645c.486.288 1.314.612 2.107.612 1.135 0 1.674-.559 1.674-1.297 0-.756-.449-1.152-1.602-1.584-1.585-.576-2.323-1.423-2.323-2.467 0-1.404 1.152-2.557 3.007-2.557.883 0 1.656.234 2.125.54l-.379 1.152a3.374 3.374 0 00-1.781-.522c-.938 0-1.441.54-1.441 1.188 0 .721.504 1.045 1.639 1.495 1.494.558 2.287 1.313 2.287 2.61 0 1.549-1.207 2.629-3.241 2.629-.954 0-1.837-.252-2.448-.612l.376-1.187zM550.574 73.445v2.088h2.268v1.207h-2.268v4.699c0 1.08.305 1.692 1.188 1.692.432 0 .685-.036.918-.108l.072 1.207a4.346 4.346 0 01-1.404.216c-.738 0-1.332-.252-1.711-.666-.432-.486-.611-1.261-.611-2.287V76.74h-1.351v-1.207h1.351v-1.62l1.548-.468zM560.744 82.158c0 .757.037 1.495.127 2.089h-1.423l-.126-1.099h-.054c-.486.685-1.423 1.297-2.665 1.297-1.765 0-2.664-1.242-2.664-2.503 0-2.106 1.872-3.259 5.238-3.241v-.18c0-.702-.197-2.017-1.98-1.999-.828 0-1.674.234-2.286.648l-.36-1.063c.721-.45 1.783-.756 2.881-.756 2.665 0 3.313 1.818 3.313 3.547v3.26zm-1.529-2.358c-1.729-.036-3.691.27-3.691 1.963 0 1.044.684 1.512 1.477 1.512 1.152 0 1.891-.72 2.143-1.458.054-.18.072-.36.072-.504V79.8zM563.299 77.892c0-.919-.018-1.639-.072-2.359h1.404l.09 1.44h.037c.432-.81 1.439-1.62 2.881-1.62 1.205 0 3.078.72 3.078 3.709v5.186h-1.584v-5.023c0-1.404-.522-2.575-2.018-2.575-1.025 0-1.836.738-2.124 1.621a2.305 2.305 0 00-.108.738v5.239h-1.584v-6.356zM579.5 83.942c-.414.197-1.332.504-2.502.504-2.629 0-4.34-1.782-4.34-4.447 0-2.683 1.836-4.646 4.682-4.646.936 0 1.764.234 2.197.468l-.361 1.207c-.377-.198-.972-.415-1.836-.415-1.998 0-3.079 1.495-3.079 3.296 0 2.017 1.296 3.259 3.024 3.259.9 0 1.495-.217 1.945-.414l.27 1.188zM582.127 80.178c.035 2.143 1.387 3.025 2.988 3.025 1.135 0 1.837-.198 2.413-.45l.288 1.134c-.559.252-1.53.559-2.916.559-2.684 0-4.286-1.782-4.286-4.411s1.548-4.682 4.087-4.682c2.863 0 3.602 2.484 3.602 4.087 0 .324-.018.559-.055.738h-6.121zm4.644-1.134c.019-.99-.414-2.558-2.195-2.558-1.621 0-2.305 1.459-2.432 2.558h4.627zM601.587 71.463v10.533c0 .774.036 1.657.071 2.251h-1.404l-.072-1.513h-.053c-.469.973-1.514 1.711-2.936 1.711-2.106 0-3.745-1.782-3.745-4.43-.019-2.898 1.801-4.663 3.907-4.663 1.351 0 2.232.63 2.629 1.314h.036v-5.204h1.567zm-1.567 7.616c0-.197-.019-.468-.072-.666-.233-.99-1.099-1.818-2.286-1.818-1.639 0-2.611 1.44-2.611 3.349 0 1.765.883 3.224 2.574 3.224 1.063 0 2.035-.721 2.323-1.891a2.76 2.76 0 00.072-.685v-1.513z" />
	<g fill="#009FE3">
		<path
			d="M342.635 105.811h-4.699v4.375h5.257v1.314h-6.842V99.365h6.572v1.314h-4.987v3.835h4.699v1.297zM345.171 98.716h1.584V111.5h-1.584V98.716zM350.301 107.431c.036 2.143 1.386 3.025 2.989 3.025 1.134 0 1.836-.198 2.413-.45l.288 1.134c-.558.252-1.53.559-2.917.559-2.683 0-4.285-1.782-4.285-4.411s1.549-4.682 4.087-4.682c2.863 0 3.601 2.484 3.601 4.087 0 .324-.018.559-.054.738h-6.122zm4.646-1.134c.018-.99-.415-2.558-2.197-2.558-1.621 0-2.305 1.459-2.431 2.558h4.628zM364.649 111.195c-.414.197-1.333.504-2.503.504-2.629 0-4.339-1.782-4.339-4.447 0-2.683 1.836-4.646 4.682-4.646.936 0 1.764.234 2.197.468l-.36 1.207c-.378-.198-.972-.415-1.836-.415-1.999 0-3.079 1.495-3.079 3.296 0 2.017 1.296 3.259 3.025 3.259.9 0 1.495-.217 1.945-.414l.268 1.188zM368.643 100.698v2.088h2.269v1.207h-2.269v4.699c0 1.08.306 1.692 1.188 1.692.432 0 .685-.036.918-.108l.072 1.207a4.346 4.346 0 01-1.404.216c-.738 0-1.332-.252-1.71-.666-.432-.486-.612-1.261-.612-2.287v-4.753h-1.35v-1.207h1.35v-1.62l1.548-.468zM372.693 105.504c0-1.026-.018-1.908-.072-2.719h1.387l.072 1.729h.054c.396-1.17 1.368-1.908 2.431-1.908.162 0 .288.018.432.036v1.494c-.162-.036-.324-.036-.54-.036-1.117 0-1.909.828-2.125 2.017a4.739 4.739 0 00-.054.738v4.646h-1.584v-5.997zM386.284 107.071c0 3.224-2.25 4.628-4.339 4.628-2.34 0-4.177-1.729-4.177-4.483 0-2.899 1.927-4.609 4.321-4.609 2.503-.001 4.195 1.817 4.195 4.464zm-6.896.09c0 1.908 1.081 3.349 2.629 3.349 1.512 0 2.646-1.423 2.646-3.385 0-1.477-.738-3.331-2.611-3.331-1.854 0-2.664 1.729-2.664 3.367zM388.28 105.145c0-.919-.018-1.639-.072-2.359h1.405l.09 1.44h.036c.432-.81 1.44-1.62 2.88-1.62 1.207 0 3.079.72 3.079 3.709v5.186h-1.585v-5.023c0-1.404-.521-2.575-2.016-2.575-1.026 0-1.836.738-2.125 1.621a2.278 2.278 0 00-.108.738v5.239h-1.584v-6.356zM402.14 99.545c.684-.162 1.781-.271 2.862-.271 1.566 0 2.575.271 3.313.882.629.469 1.025 1.188 1.025 2.143 0 1.188-.792 2.215-2.053 2.665v.054c1.152.271 2.503 1.225 2.503 3.025 0 1.044-.414 1.854-1.044 2.431-.828.774-2.197 1.135-4.178 1.135-1.08 0-1.908-.072-2.43-.145V99.545zm1.567 4.969h1.422c1.639 0 2.611-.882 2.611-2.053 0-1.404-1.063-1.98-2.647-1.98-.72 0-1.134.055-1.386.108v3.925zm0 5.798c.323.054.756.072 1.314.072 1.619 0 3.114-.595 3.114-2.358 0-1.639-1.423-2.341-3.133-2.341h-1.296v4.627zM412.797 107.431c.035 2.143 1.386 3.025 2.988 3.025 1.135 0 1.836-.198 2.412-.45l.289 1.134c-.559.252-1.531.559-2.918.559-2.682 0-4.285-1.782-4.285-4.411s1.549-4.682 4.088-4.682c2.863 0 3.602 2.484 3.602 4.087 0 .324-.019.559-.055.738h-6.121zm4.644-1.134c.018-.99-.414-2.558-2.196-2.558-1.62 0-2.305 1.459-2.431 2.558h4.627zM427.053 109.411c0 .757.036 1.495.126 2.089h-1.422l-.127-1.099h-.053c-.486.685-1.424 1.297-2.666 1.297-1.764 0-2.664-1.242-2.664-2.503 0-2.106 1.873-3.259 5.239-3.241v-.18c0-.702-.198-2.017-1.98-1.999-.828 0-1.675.234-2.286.648l-.361-1.063c.721-.45 1.783-.756 2.881-.756 2.666 0 3.313 1.818 3.313 3.547v3.26zm-1.53-2.358c-1.729-.036-3.691.27-3.691 1.963 0 1.044.685 1.512 1.477 1.512 1.152 0 1.891-.72 2.143-1.458.055-.18.072-.36.072-.504v-1.513zM429.607 105.145c0-.919-.035-1.639-.072-2.359h1.387l.072 1.423h.055c.486-.828 1.296-1.603 2.754-1.603 1.171 0 2.07.72 2.449 1.746h.035a3.45 3.45 0 01.991-1.134c.522-.396 1.08-.612 1.908-.612 1.171 0 2.881.756 2.881 3.781v5.113h-1.548v-4.915c0-1.693-.631-2.684-1.891-2.684-.918 0-1.604.667-1.891 1.423a2.704 2.704 0 00-.127.792v5.384h-1.548v-5.222c0-1.387-.612-2.377-1.818-2.377-.973 0-1.71.793-1.963 1.585-.09.216-.126.504-.126.774v5.239h-1.549v-6.354z" />
	</g>
	<path fill="#E30613" stroke="#E30613" stroke-width="3" d="M537-30.253h227.704" />
	<path fill="#1D71B8" stroke="#1D71B8" stroke-width="3" d="M537 199.247l228.321.5" />
	<path fill="#E30613" stroke="#E30613" stroke-width="3" d="M763.469-31.253v81.5" />
	<path fill="#1D71B8" stroke="#1D71B8" stroke-width="3" d="M764.087 200.247v-81.052" />
	<g>
		<path
			d="M73.64 89.021c-.078-2.548 1.326-3.848 3.068-3.848.962 0 1.976.312 3.484 1.118 1.274.65 2.236 1.092 3.198 1.092.936 0 1.378-.728 1.404-2.132h1.534c.13 2.86-1.352 3.848-2.99 3.848-.936 0-2.08-.338-3.614-1.144-.988-.52-2.08-1.066-3.042-1.066-.884 0-1.456.78-1.482 2.132h-1.56z" />
	</g>
	<g>
		<path fill="#1D1D1B" d="M549.086 15.997v50.709" />
		<path fill="none" stroke="#1D1D1B" stroke-width="2" stroke-miterlimit="10" d="M549.086 16.797v49.909" />
		<path fill="#1D1D1B" d="M543.885 15.997h10.4v1.6h-10.4z" />
	</g>
	<g>
		<path fill="none" stroke="#1D1D1B" stroke-width="2" stroke-miterlimit="10" d="M549.086 90.465v63.066" />
		<path fill="#1D1D1B" d="M543.885 152.731h10.4v1.6h-10.4z" />
	</g>
	<g>
		<path fill="none" stroke="#000" stroke-width="2" d="M478.128 141.359l.323 58.248" />
		<path d="M471.613 146.697l1.178 1.084 5.339-5.808 5.403 5.749 1.166-1.098-6.583-7z" />
	</g>
	<g>
		<path
			d="M417.768 203.897h1.584v10.821h5.186v1.314h-6.77v-12.135zM433.251 213.638c0 .918.019 1.71.072 2.395h-1.404l-.09-1.423h-.036c-.396.703-1.333 1.621-2.881 1.621-1.369 0-3.007-.774-3.007-3.817v-5.096h1.584v4.808c0 1.656.522 2.791 1.944 2.791 1.063 0 1.801-.738 2.089-1.459.09-.216.145-.504.145-.81v-5.33h1.584v6.32zM435.877 209.677c0-.919-.036-1.639-.072-2.359h1.387l.072 1.423h.054c.486-.828 1.296-1.603 2.755-1.603 1.17 0 2.07.72 2.448 1.746h.036a3.46 3.46 0 01.99-1.134c.522-.396 1.081-.612 1.909-.612 1.17 0 2.881.756 2.881 3.781v5.113h-1.549v-4.915c0-1.693-.63-2.684-1.891-2.684-.918 0-1.603.667-1.891 1.423a2.704 2.704 0 00-.126.792v5.384h-1.548v-5.222c0-1.387-.612-2.377-1.819-2.377-.972 0-1.71.793-1.962 1.585-.091.216-.126.504-.126.774v5.239h-1.549v-6.354zM452.653 204.869c0 .54-.378.972-1.009.972-.576 0-.954-.432-.954-.972s.396-.99.99-.99c.577 0 .973.432.973.99zm-1.765 11.163v-8.715h1.584v8.715h-1.584zM455.1 209.677c0-.919-.018-1.639-.072-2.359h1.404l.09 1.44h.036c.433-.81 1.44-1.62 2.881-1.62 1.207 0 3.079.72 3.079 3.709v5.186h-1.584v-5.023c0-1.404-.522-2.575-2.017-2.575-1.026 0-1.837.738-2.125 1.621a2.278 2.278 0 00-.108.738v5.239H455.1v-6.356zM472.977 211.603c0 3.224-2.251 4.628-4.34 4.628-2.341 0-4.177-1.729-4.177-4.483 0-2.899 1.926-4.609 4.321-4.609 2.503-.001 4.196 1.817 4.196 4.464zm-6.896.091c0 1.908 1.08 3.349 2.629 3.349 1.513 0 2.646-1.423 2.646-3.385 0-1.477-.738-3.331-2.61-3.331-1.855-.001-2.665 1.728-2.665 3.367zM482.264 213.638c0 .918.019 1.71.072 2.395h-1.404l-.09-1.423h-.036c-.396.703-1.333 1.621-2.881 1.621-1.369 0-3.007-.774-3.007-3.817v-5.096h1.584v4.808c0 1.656.522 2.791 1.944 2.791 1.063 0 1.801-.738 2.089-1.459.09-.216.145-.504.145-.81v-5.33h1.584v6.32zM484.675 214.43c.486.288 1.314.612 2.106.612 1.134 0 1.675-.559 1.675-1.297 0-.756-.45-1.152-1.603-1.584-1.585-.576-2.323-1.423-2.323-2.467 0-1.404 1.152-2.557 3.007-2.557.883 0 1.657.234 2.125.54l-.378 1.152a3.382 3.382 0 00-1.783-.522c-.936 0-1.44.54-1.44 1.188 0 .721.505 1.045 1.639 1.494 1.495.559 2.287 1.314 2.287 2.611 0 1.549-1.207 2.629-3.241 2.629-.954 0-1.837-.252-2.449-.612l.378-1.187zM495.689 214.124c.702.45 1.711.792 2.791.792 1.603 0 2.539-.847 2.539-2.07 0-1.117-.648-1.783-2.287-2.396-1.98-.72-3.204-1.765-3.204-3.457 0-1.891 1.566-3.295 3.925-3.295 1.225 0 2.143.288 2.665.595l-.433 1.278c-.378-.234-1.188-.576-2.286-.576-1.657 0-2.287.99-2.287 1.818 0 1.135.738 1.692 2.413 2.341 2.052.792 3.078 1.782 3.078 3.564 0 1.873-1.368 3.512-4.23 3.512-1.171 0-2.449-.36-3.098-.792l.414-1.314zM511.027 215.727c-.414.197-1.333.504-2.503.504-2.629 0-4.339-1.783-4.339-4.447 0-2.683 1.836-4.646 4.681-4.646.937 0 1.765.234 2.197.468l-.36 1.207c-.378-.198-.973-.414-1.837-.414-1.998 0-3.078 1.494-3.078 3.295 0 2.017 1.296 3.259 3.024 3.259.9 0 1.494-.216 1.944-.414l.271 1.188zM512.88 210.036c0-1.026-.018-1.908-.072-2.719h1.387l.072 1.729h.054c.396-1.17 1.368-1.908 2.431-1.908.162 0 .288.018.432.036v1.494c-.161-.036-.323-.036-.54-.036-1.116 0-1.908.828-2.124 2.017a4.734 4.734 0 00-.055.738v4.646h-1.584v-5.997zM519.468 211.963c.036 2.143 1.387 3.025 2.989 3.025 1.135 0 1.837-.198 2.413-.45l.288 1.134c-.559.252-1.531.559-2.917.559-2.683 0-4.285-1.783-4.285-4.411 0-2.629 1.548-4.682 4.087-4.682 2.862 0 3.601 2.484 3.601 4.087 0 .324-.018.559-.054.738h-6.122zm4.645-1.134c.019-.991-.414-2.558-2.196-2.558-1.621 0-2.305 1.459-2.431 2.558h4.627zM528.485 211.963c.036 2.143 1.387 3.025 2.989 3.025 1.135 0 1.837-.198 2.413-.45l.288 1.134c-.559.252-1.531.559-2.917.559-2.683 0-4.285-1.783-4.285-4.411 0-2.629 1.548-4.682 4.087-4.682 2.862 0 3.601 2.484 3.601 4.087 0 .324-.018.559-.054.738h-6.122zm4.646-1.134c.019-.991-.414-2.558-2.196-2.558-1.621 0-2.305 1.459-2.431 2.558h4.627zM536.621 209.677c0-.919-.019-1.639-.072-2.359h1.404l.091 1.44h.035c.433-.81 1.44-1.62 2.881-1.62 1.207 0 3.079.72 3.079 3.709v5.186h-1.584v-5.023c0-1.404-.522-2.575-2.017-2.575-1.026 0-1.837.738-2.125 1.621a2.278 2.278 0 00-.108.738v5.239h-1.584v-6.356z" />
	</g>
	<path stroke="#000" stroke-width="3" d="M196.9 198.247h-10.945M225.888 198.247h-10.945M220.416 192.775v10.946" />
	<g>
		<path
			d="M265.884-43.439h-4.699v4.375h5.257v1.314H259.6v-12.136h6.572v1.314h-4.987v3.835h4.699v1.298zM268.906-46.465l1.71 4.88c.288.81.522 1.53.702 2.25h.054c.198-.72.45-1.44.738-2.25l1.693-4.88h1.656l-3.421 8.715h-1.513l-3.313-8.715h1.694zM283.002-39.839c0 .756.036 1.495.126 2.089h-1.422l-.126-1.098h-.054c-.486.684-1.422 1.296-2.665 1.296-1.765 0-2.665-1.243-2.665-2.503 0-2.106 1.873-3.259 5.239-3.241v-.18c0-.702-.198-2.017-1.98-1.999-.828 0-1.674.234-2.287.648l-.36-1.063c.72-.45 1.783-.756 2.881-.756 2.665 0 3.313 1.818 3.313 3.547v3.26zm-1.531-2.358c-1.729-.036-3.691.27-3.691 1.962 0 1.044.684 1.513 1.476 1.513 1.152 0 1.891-.72 2.143-1.458.054-.18.072-.36.072-.504v-1.513zM291.768-38.056c-.414.198-1.333.504-2.503.504-2.629 0-4.339-1.783-4.339-4.447 0-2.683 1.837-4.646 4.682-4.646.936 0 1.765.234 2.196.468l-.36 1.207c-.378-.198-.972-.414-1.836-.414-1.999 0-3.079 1.495-3.079 3.295 0 2.017 1.296 3.259 3.025 3.259.9 0 1.495-.216 1.945-.415l.269 1.189zM300.912-40.144c0 .918.018 1.71.072 2.395h-1.404l-.09-1.422h-.036c-.396.702-1.332 1.621-2.881 1.621-1.368 0-3.007-.774-3.007-3.817v-5.096h1.584v4.808c0 1.657.522 2.791 1.945 2.791 1.062 0 1.8-.738 2.088-1.458.09-.216.144-.504.144-.81v-5.33h1.584v6.318zM309.659-39.839c0 .756.036 1.495.126 2.089h-1.423l-.126-1.098h-.054c-.486.684-1.423 1.296-2.665 1.296-1.765 0-2.665-1.243-2.665-2.503 0-2.106 1.873-3.259 5.239-3.241v-.18c0-.702-.198-2.017-1.98-1.999-.828 0-1.674.234-2.287.648l-.36-1.063c.72-.45 1.783-.756 2.881-.756 2.665 0 3.313 1.818 3.313 3.547v3.26zm-1.53-2.358c-1.729-.036-3.691.27-3.691 1.962 0 1.044.684 1.513 1.476 1.513 1.152 0 1.891-.72 2.143-1.458.054-.18.072-.36.072-.504v-1.513zM314.051-48.553v2.088h2.269v1.207h-2.269v4.7c0 1.08.306 1.692 1.188 1.692.432 0 .685-.036.918-.108l.072 1.207a4.32 4.32 0 01-1.405.216c-.738 0-1.333-.252-1.71-.667-.432-.486-.612-1.26-.612-2.287v-4.753h-1.35v-1.207h1.35v-1.62l1.549-.468zM318.874-41.819c.036 2.143 1.386 3.025 2.989 3.025 1.134 0 1.836-.198 2.413-.45l.288 1.134c-.558.252-1.53.559-2.917.559-2.683 0-4.286-1.783-4.286-4.412 0-2.628 1.548-4.681 4.087-4.681 2.863 0 3.601 2.484 3.601 4.087 0 .324-.018.559-.054.738h-6.121zm4.645-1.134c.018-.99-.414-2.557-2.196-2.557-1.621 0-2.305 1.458-2.431 2.557h4.627zM334.518-50.533V-40c0 .774.036 1.656.072 2.25h-1.404l-.072-1.513h-.054c-.468.973-1.513 1.711-2.935 1.711-2.106 0-3.745-1.783-3.745-4.43-.018-2.898 1.801-4.663 3.907-4.663 1.351 0 2.233.63 2.629 1.314h.036v-5.204h1.566zm-1.566 7.616a2.81 2.81 0 00-.072-.667c-.234-.99-1.098-1.818-2.287-1.818-1.639 0-2.611 1.44-2.611 3.349 0 1.765.882 3.223 2.575 3.223 1.063 0 2.035-.721 2.323-1.891.054-.216.072-.432.072-.685v-1.511zM350.286-38.29c-.702.27-2.106.666-3.745.666-1.836 0-3.349-.468-4.537-1.603-1.044-1.008-1.693-2.629-1.693-4.519 0-3.619 2.503-6.266 6.572-6.266 1.404 0 2.521.306 3.043.558l-.396 1.278c-.648-.306-1.458-.522-2.683-.522-2.953 0-4.879 1.836-4.879 4.879 0 3.079 1.836 4.897 4.681 4.897 1.026 0 1.729-.144 2.089-.324v-3.619h-2.449v-1.261h3.997v5.836zM352.606-50.533h1.584v12.784h-1.584v-12.784zM362.975-39.839c0 .756.036 1.495.126 2.089h-1.422l-.126-1.098h-.054c-.486.684-1.422 1.296-2.665 1.296-1.765 0-2.665-1.243-2.665-2.503 0-2.106 1.873-3.259 5.239-3.241v-.18c0-.702-.198-2.017-1.98-1.999-.828 0-1.674.234-2.287.648l-.36-1.063c.72-.45 1.783-.756 2.881-.756 2.665 0 3.313 1.818 3.313 3.547v3.26zm-1.53-2.358c-1.729-.036-3.691.27-3.691 1.962 0 1.044.684 1.513 1.476 1.513 1.152 0 1.891-.72 2.143-1.458.054-.18.072-.36.072-.504v-1.513zM365.313-39.352c.486.288 1.314.612 2.107.612 1.134 0 1.674-.558 1.674-1.296 0-.756-.45-1.152-1.603-1.584-1.584-.576-2.323-1.422-2.323-2.467 0-1.404 1.152-2.557 3.007-2.557.882 0 1.656.234 2.125.54l-.378 1.152a3.375 3.375 0 00-1.782-.522c-.937 0-1.44.54-1.44 1.188 0 .72.504 1.044 1.638 1.495 1.495.558 2.287 1.314 2.287 2.611 0 1.548-1.206 2.629-3.241 2.629-.954 0-1.836-.252-2.449-.612l.378-1.189zM372.441-39.352c.486.288 1.314.612 2.107.612 1.134 0 1.674-.558 1.674-1.296 0-.756-.45-1.152-1.603-1.584-1.584-.576-2.323-1.422-2.323-2.467 0-1.404 1.152-2.557 3.007-2.557.882 0 1.656.234 2.125.54l-.378 1.152a3.375 3.375 0 00-1.782-.522c-.937 0-1.44.54-1.44 1.188 0 .72.504 1.044 1.638 1.495 1.495.558 2.287 1.314 2.287 2.611 0 1.548-1.206 2.629-3.241 2.629-.954 0-1.836-.252-2.449-.612l.378-1.189zM392.118-38.128c-.558.288-1.729.576-3.205.576-3.421 0-5.978-2.161-5.978-6.158 0-3.817 2.575-6.374 6.338-6.374 1.494 0 2.466.324 2.881.54l-.396 1.278c-.576-.288-1.422-.504-2.431-.504-2.845 0-4.735 1.819-4.735 5.006 0 2.989 1.71 4.879 4.646 4.879.972 0 1.944-.198 2.575-.504l.305 1.261zM394.258-46.465l1.891 5.15c.216.576.432 1.26.576 1.782h.036c.161-.522.342-1.188.558-1.818l1.729-5.114h1.675l-2.377 6.212c-1.134 2.989-1.908 4.501-2.989 5.456-.791.666-1.548.936-1.943 1.008l-.396-1.314a4.203 4.203 0 001.387-.774c.432-.342.953-.954 1.332-1.765.072-.162.126-.288.126-.378 0-.09-.036-.216-.126-.414l-3.205-8.031h1.726zM402.16-50.533h1.584v12.784h-1.584v-12.784zM408.172-48.913c0 .54-.378.972-1.008.972-.576 0-.955-.432-.955-.972 0-.541.396-.991.99-.991.576 0 .973.433.973.991zm-1.764 11.163v-8.715h1.584v8.715h-1.584zM410.619-44.106c0-.918-.018-1.638-.072-2.359h1.405l.09 1.44h.036c.432-.81 1.44-1.62 2.881-1.62 1.206 0 3.078.72 3.078 3.709v5.186h-1.584v-5.023c0-1.404-.521-2.575-2.017-2.575-1.026 0-1.837.738-2.124 1.621a2.278 2.278 0 00-.108.738v5.24h-1.585v-6.357zM428.117-50.533V-40c0 .774.036 1.656.072 2.25h-1.404l-.072-1.513h-.054c-.468.973-1.513 1.711-2.935 1.711-2.107 0-3.746-1.783-3.746-4.43-.018-2.898 1.801-4.663 3.908-4.663 1.35 0 2.232.63 2.629 1.314h.035v-5.204h1.567zm-1.566 7.616a2.81 2.81 0 00-.072-.667c-.233-.99-1.098-1.818-2.286-1.818-1.639 0-2.61 1.44-2.61 3.349 0 1.765.882 3.223 2.574 3.223 1.063 0 2.035-.721 2.322-1.891.055-.216.072-.432.072-.685v-1.511zM431.643-41.819c.036 2.143 1.386 3.025 2.989 3.025 1.134 0 1.836-.198 2.412-.45l.288 1.134c-.558.252-1.53.559-2.917.559-2.683 0-4.285-1.783-4.285-4.412 0-2.628 1.549-4.681 4.088-4.681 2.862 0 3.601 2.484 3.601 4.087 0 .324-.019.559-.054.738h-6.122zm4.646-1.134c.018-.99-.414-2.557-2.197-2.557-1.62 0-2.305 1.458-2.43 2.557h4.627zM439.779-43.745c0-1.026-.018-1.909-.072-2.719h1.387l.072 1.729h.054c.396-1.17 1.368-1.908 2.431-1.908.162 0 .288.018.432.036v1.494c-.162-.036-.324-.036-.539-.036-1.117 0-1.909.829-2.125 2.017a4.734 4.734 0 00-.055.738v4.646h-1.584v-5.997z" />
	</g>
	<path fill="#0091D3" stroke="#0091D3" stroke-width="4" d="M244.078 86.206l41.935-.001" />
	<g>
		<path fill="none" stroke="#0091D3" stroke-width="4" d="M294.078 86.206l111.636-.001" />
		<path fill="#0091D3" d="M396.435 97.657l-1.91-2.051 10.113-9.398-10.113-9.401 1.91-2.05 12.315 11.451z" />
	</g>
	<g>
		<path
			d="M272.414 31.433l-1.26 3.817h-1.621l4.141-12.136h1.873l4.141 12.136h-1.674l-1.296-3.817h-4.304zm3.997-1.224l-1.207-3.493c-.27-.792-.45-1.512-.63-2.214h-.036c-.18.702-.36 1.458-.612 2.196l-1.188 3.511h3.673zM281.36 28.894c0-.918-.018-1.638-.072-2.359h1.405l.09 1.44h.036c.432-.81 1.44-1.62 2.881-1.62 1.206 0 3.079.72 3.079 3.709v5.186h-1.584v-5.023c0-1.404-.522-2.575-2.017-2.575-1.026 0-1.836.738-2.125 1.621a2.278 2.278 0 00-.108.738v5.24h-1.584v-6.357zM299.236 30.821c0 3.223-2.25 4.627-4.339 4.627-2.34 0-4.177-1.729-4.177-4.483 0-2.899 1.927-4.609 4.321-4.609 2.503 0 4.195 1.818 4.195 4.465zm-6.896.09c0 1.909 1.081 3.349 2.629 3.349 1.512 0 2.646-1.422 2.646-3.385 0-1.476-.738-3.331-2.611-3.331-1.854 0-2.664 1.729-2.664 3.367zM308.74 22.467V33c0 .774.036 1.656.072 2.25h-1.404l-.072-1.513h-.054c-.468.973-1.513 1.711-2.935 1.711-2.106 0-3.745-1.783-3.745-4.43-.018-2.898 1.801-4.663 3.907-4.663 1.351 0 2.233.63 2.629 1.314h.036v-5.204h1.566zm-1.566 7.616a2.81 2.81 0 00-.072-.667c-.234-.99-1.098-1.818-2.287-1.818-1.639 0-2.611 1.44-2.611 3.349 0 1.765.882 3.223 2.575 3.223 1.063 0 2.035-.721 2.323-1.891.054-.216.072-.432.072-.685v-1.511zM312.266 31.181c.036 2.143 1.386 3.025 2.989 3.025 1.134 0 1.836-.198 2.413-.45l.288 1.134c-.558.252-1.53.559-2.917.559-2.683 0-4.286-1.783-4.286-4.412 0-2.628 1.548-4.681 4.087-4.681 2.863 0 3.601 2.484 3.601 4.087 0 .324-.018.559-.054.738h-6.121zm4.645-1.134c.018-.99-.414-2.557-2.196-2.557-1.621 0-2.305 1.458-2.431 2.557h4.627z" />
	</g>
	<g>
		<path
			d="M149.432 137.25l-3.079-12.136h1.657l1.44 6.14c.36 1.512.684 3.025.9 4.195h.036c.198-1.206.576-2.646.99-4.213l1.621-6.122h1.639l1.476 6.158c.342 1.44.667 2.881.847 4.159h.036c.252-1.333.594-2.683.972-4.195l1.603-6.122h1.603l-3.439 12.136h-1.638l-1.531-6.32c-.378-1.548-.63-2.737-.792-3.961h-.036c-.198 1.207-.486 2.395-.937 3.961l-1.729 6.32h-1.639zM162.914 133.181c.036 2.143 1.386 3.025 2.989 3.025 1.134 0 1.836-.198 2.413-.45l.288 1.134c-.558.252-1.53.559-2.917.559-2.683 0-4.286-1.783-4.286-4.412 0-2.628 1.548-4.681 4.087-4.681 2.863 0 3.601 2.484 3.601 4.087 0 .324-.018.559-.054.738h-6.121zm4.645-1.134c.018-.99-.414-2.557-2.196-2.557-1.621 0-2.305 1.458-2.431 2.557h4.627zM171.05 124.467h1.584v5.456h.036c.252-.45.648-.864 1.134-1.134a3.248 3.248 0 011.621-.432c1.17 0 3.042.72 3.042 3.709v5.186h-1.584v-5.005c0-1.405-.522-2.575-2.017-2.575-1.026 0-1.818.72-2.125 1.566-.09.234-.108.468-.108.756v5.258h-1.584v-12.785zM181.04 130.894c0-.918-.018-1.638-.072-2.359h1.405l.09 1.44h.036c.432-.81 1.44-1.62 2.881-1.62 1.206 0 3.079.72 3.079 3.709v5.186h-1.584v-5.023c0-1.404-.522-2.575-2.017-2.575-1.026 0-1.836.738-2.125 1.621a2.278 2.278 0 00-.108.738v5.24h-1.584v-6.357zM191.912 133.181c.036 2.143 1.386 3.025 2.989 3.025 1.134 0 1.836-.198 2.413-.45l.288 1.134c-.558.252-1.53.559-2.917.559-2.683 0-4.285-1.783-4.285-4.412 0-2.628 1.549-4.681 4.087-4.681 2.863 0 3.601 2.484 3.601 4.087 0 .324-.018.559-.054.738h-6.122zm4.645-1.134c.018-.99-.415-2.557-2.197-2.557-1.621 0-2.305 1.458-2.431 2.557h4.628zM200.048 124.467h1.584v12.784h-1.584v-12.784zM206.204 126.447v2.088h2.269v1.207h-2.269v4.7c0 1.08.306 1.692 1.188 1.692.432 0 .685-.036.918-.108l.072 1.207a4.318 4.318 0 01-1.404.216c-.738 0-1.332-.252-1.71-.667-.432-.486-.612-1.26-.612-2.287v-4.753h-1.35v-1.207h1.35v-1.62l1.548-.468zM222.586 136.872c-.558.288-1.729.576-3.205.576-3.421 0-5.978-2.161-5.978-6.158 0-3.817 2.575-6.374 6.338-6.374 1.495 0 2.467.324 2.881.54l-.396 1.278c-.576-.288-1.422-.504-2.431-.504-2.845 0-4.735 1.819-4.735 5.006 0 2.989 1.71 4.879 4.646 4.879.972 0 1.944-.198 2.575-.504l.305 1.261zM224.726 128.535l1.891 5.15c.216.576.432 1.26.576 1.782h.036c.162-.522.342-1.188.559-1.818l1.729-5.114h1.674l-2.376 6.212c-1.135 2.989-1.909 4.501-2.989 5.456-.792.666-1.548.936-1.944 1.008l-.396-1.314a4.203 4.203 0 001.387-.774c.432-.342.954-.954 1.333-1.765.072-.162.126-.288.126-.378 0-.09-.036-.216-.126-.414l-3.205-8.031h1.725zM232.628 124.467h1.584v12.784h-1.584v-12.784zM238.64 126.087c0 .54-.378.972-1.008.972-.576 0-.955-.432-.955-.972 0-.541.396-.991.99-.991.577 0 .973.433.973.991zm-1.764 11.163v-8.715h1.584v8.715h-1.584zM241.088 130.894c0-.918-.018-1.638-.072-2.359h1.405l.09 1.44h.036c.432-.81 1.44-1.62 2.881-1.62 1.206 0 3.079.72 3.079 3.709v5.186h-1.584v-5.023c0-1.404-.522-2.575-2.017-2.575-1.026 0-1.836.738-2.125 1.621a2.278 2.278 0 00-.108.738v5.24h-1.584v-6.357zM258.586 124.467V135c0 .774.036 1.656.072 2.25h-1.404l-.072-1.513h-.054c-.468.973-1.513 1.711-2.935 1.711-2.106 0-3.745-1.783-3.745-4.43-.018-2.898 1.801-4.663 3.907-4.663 1.351 0 2.233.63 2.629 1.314h.036v-5.204h1.566zm-1.567 7.616a2.81 2.81 0 00-.072-.667c-.234-.99-1.098-1.818-2.287-1.818-1.639 0-2.611 1.44-2.611 3.349 0 1.765.882 3.223 2.575 3.223 1.063 0 2.035-.721 2.323-1.891.054-.216.072-.432.072-.685v-1.511zM262.112 133.181c.036 2.143 1.386 3.025 2.989 3.025 1.134 0 1.836-.198 2.413-.45l.288 1.134c-.558.252-1.53.559-2.917.559-2.683 0-4.286-1.783-4.286-4.412 0-2.628 1.548-4.681 4.087-4.681 2.863 0 3.601 2.484 3.601 4.087 0 .324-.018.559-.054.738h-6.121zm4.645-1.134c.018-.99-.414-2.557-2.196-2.557-1.621 0-2.305 1.458-2.431 2.557h4.627zM270.247 131.255c0-1.026-.018-1.909-.072-2.719h1.387l.072 1.729h.054c.396-1.17 1.368-1.908 2.431-1.908.162 0 .288.018.432.036v1.494c-.162-.036-.324-.036-.54-.036-1.116 0-1.909.829-2.125 2.017a4.739 4.739 0 00-.054.738v4.646h-1.584v-5.997z" />
	</g>
	<g>
		<path
			d="M666.914 230.205c-.559.288-1.729.576-3.205.576-3.421 0-5.978-2.161-5.978-6.158 0-3.817 2.574-6.374 6.338-6.374 1.494 0 2.467.324 2.881.54l-.396 1.279c-.576-.289-1.422-.505-2.431-.505-2.845 0-4.735 1.818-4.735 5.006 0 2.989 1.711 4.879 4.646 4.879.973 0 1.944-.197 2.574-.504l.306 1.261zM674.833 228.494c0 .757.036 1.495.126 2.089h-1.423l-.126-1.099h-.054c-.486.685-1.423 1.297-2.665 1.297-1.765 0-2.665-1.242-2.665-2.503 0-2.106 1.873-3.259 5.24-3.241v-.18c0-.702-.198-2.017-1.981-1.999-.828 0-1.674.234-2.286.648l-.36-1.063c.721-.45 1.783-.756 2.881-.756 2.665 0 3.313 1.818 3.313 3.547v3.26zm-1.531-2.358c-1.729-.036-3.691.271-3.691 1.963 0 1.044.684 1.512 1.477 1.512 1.152 0 1.891-.72 2.143-1.458.054-.18.072-.36.072-.504v-1.513zM677.387 224.713c0-1.116-.036-2.017-.072-2.845h1.404l.091 1.495h.035c.631-1.063 1.675-1.675 3.098-1.675 2.124 0 3.709 1.782 3.709 4.411 0 3.133-1.927 4.682-3.979 4.682-1.152 0-2.16-.504-2.683-1.368h-.036v4.735h-1.566v-9.435zm1.567 2.323c0 .233.018.45.072.648.288 1.098 1.242 1.854 2.376 1.854 1.675 0 2.647-1.369 2.647-3.367 0-1.729-.919-3.223-2.593-3.223-1.08 0-2.106.756-2.395 1.944a2.522 2.522 0 00-.108.63v1.514zM693.751 228.494c0 .757.036 1.495.126 2.089h-1.423l-.126-1.099h-.054c-.486.685-1.423 1.297-2.665 1.297-1.765 0-2.665-1.242-2.665-2.503 0-2.106 1.873-3.259 5.24-3.241v-.18c0-.702-.198-2.017-1.981-1.999-.828 0-1.674.234-2.286.648l-.36-1.063c.721-.45 1.783-.756 2.881-.756 2.665 0 3.313 1.818 3.313 3.547v3.26zm-1.531-2.358c-1.729-.036-3.691.271-3.691 1.963 0 1.044.684 1.512 1.477 1.512 1.152 0 1.891-.72 2.143-1.458.054-.18.072-.36.072-.504v-1.513zM702.516 230.278c-.414.197-1.333.504-2.503.504-2.629 0-4.339-1.783-4.339-4.447 0-2.683 1.836-4.646 4.681-4.646.937 0 1.765.234 2.197.468l-.36 1.207c-.378-.198-.973-.414-1.837-.414-1.998 0-3.078 1.494-3.078 3.295 0 2.017 1.296 3.259 3.024 3.259.9 0 1.494-.216 1.944-.414l.271 1.188zM706.134 219.42c0 .54-.378.972-1.009.972-.576 0-.954-.432-.954-.972s.396-.99.99-.99c.576 0 .973.432.973.99zm-1.765 11.163v-8.715h1.584v8.715h-1.584zM710.489 219.78v2.089h2.269v1.207h-2.269v4.699c0 1.08.307 1.692 1.188 1.692.433 0 .685-.036.918-.108l.072 1.207a4.346 4.346 0 01-1.404.216c-.738 0-1.332-.252-1.71-.666-.433-.486-.612-1.261-.612-2.287v-4.753h-1.351v-1.207h1.351v-1.62l1.548-.469zM722.317 226.154c0 3.224-2.251 4.628-4.34 4.628-2.341 0-4.177-1.729-4.177-4.483 0-2.899 1.926-4.609 4.321-4.609 2.503-.001 4.196 1.817 4.196 4.464zm-6.896.09c0 1.908 1.08 3.349 2.629 3.349 1.513 0 2.646-1.423 2.646-3.385 0-1.477-.738-3.331-2.61-3.331-1.855 0-2.665 1.729-2.665 3.367zM724.312 224.587c0-1.026-.018-1.908-.072-2.719h1.387l.072 1.729h.054c.396-1.17 1.368-1.908 2.431-1.908.162 0 .288.018.432.036v1.494c-.161-.036-.323-.036-.54-.036-1.116 0-1.908.828-2.124 2.017a4.734 4.734 0 00-.055.738v4.646h-1.584v-5.997zM734.068 218.592a18.173 18.173 0 013.007-.234c1.549 0 2.683.36 3.403 1.008.648.576 1.063 1.459 1.063 2.539 0 1.099-.324 1.963-.937 2.593-.847.883-2.179 1.333-3.709 1.333-.468 0-.9-.019-1.261-.108v4.861h-1.566v-11.992zm1.567 5.852c.343.09.774.126 1.297.126 1.891 0 3.043-.937 3.043-2.575 0-1.62-1.152-2.395-2.863-2.395-.684 0-1.206.054-1.477.126v4.718zM743.501 217.799h1.584v12.784h-1.584v-12.784zM753.87 228.494c0 .757.036 1.495.126 2.089h-1.423l-.126-1.099h-.054c-.486.685-1.423 1.297-2.665 1.297-1.765 0-2.665-1.242-2.665-2.503 0-2.106 1.873-3.259 5.24-3.241v-.18c0-.702-.198-2.017-1.981-1.999-.828 0-1.674.234-2.286.648l-.36-1.063c.721-.45 1.783-.756 2.881-.756 2.665 0 3.313 1.818 3.313 3.547v3.26zm-1.53-2.358c-1.729-.036-3.691.271-3.691 1.963 0 1.044.684 1.512 1.477 1.512 1.152 0 1.891-.72 2.143-1.458.054-.18.072-.36.072-.504v-1.513zM758.26 219.78v2.089h2.269v1.207h-2.269v4.699c0 1.08.307 1.692 1.188 1.692.433 0 .685-.036.918-.108l.072 1.207a4.346 4.346 0 01-1.404.216c-.738 0-1.332-.252-1.71-.666-.433-.486-.612-1.261-.612-2.287v-4.753h-1.351v-1.207h1.351v-1.62l1.548-.469zM763.084 226.514c.036 2.143 1.387 3.025 2.989 3.025 1.135 0 1.837-.198 2.413-.45l.288 1.134c-.559.252-1.531.559-2.917.559-2.683 0-4.285-1.783-4.285-4.411 0-2.629 1.548-4.682 4.087-4.682 2.862 0 3.601 2.484 3.601 4.087 0 .324-.018.559-.054.738h-6.122zm4.645-1.134c.019-.991-.414-2.558-2.196-2.558-1.621 0-2.305 1.459-2.431 2.558h4.627zM771.004 228.981c.486.288 1.314.612 2.106.612 1.134 0 1.675-.559 1.675-1.297 0-.756-.45-1.152-1.603-1.584-1.585-.576-2.323-1.423-2.323-2.467 0-1.404 1.152-2.557 3.007-2.557.883 0 1.657.234 2.125.54l-.378 1.152a3.382 3.382 0 00-1.783-.522c-.936 0-1.44.54-1.44 1.188 0 .721.505 1.045 1.639 1.494 1.495.559 2.287 1.314 2.287 2.611 0 1.549-1.207 2.629-3.241 2.629-.954 0-1.837-.252-2.449-.612l.378-1.187z" />
	</g>
	<g>
		<path fill="none" stroke="#1D1D1B" stroke-width="2" d="M719.083 215.411L611.429 11.592" />
		<path fill="#1D1D1B" d="M621.758 13.632l-.659 1.89-9.309-3.252-2.564 9.523-1.932-.522 3.125-11.598z" />
	</g>
	<g>
		<path fill="none" stroke="#1D1D1B" stroke-width="2" d="M719.083 215.411l-106.739-55.148" />
		<path fill="#1D1D1B" d="M621.986 156.038l.539 1.928-9.499 2.648 3.336 9.281-1.885.676-4.059-11.305z" />
	</g>
	<g>
		<path fill="none" stroke="#000" stroke-width="2" d="M351.414-36.504v17.352" />
		<path d="M344.87-24.453l1.172-1.091 5.37 5.779 5.372-5.779 1.172 1.091-6.544 7.037z" />
	</g>
	<g fill="#1D1D1B">
		<path
			d="M121.155 229.433l-1.26 3.817h-1.621l4.141-12.136h1.873l4.141 12.136h-1.674l-1.296-3.817h-4.304zm3.997-1.224l-1.206-3.493c-.271-.793-.45-1.513-.63-2.215h-.036c-.18.702-.36 1.458-.612 2.196l-1.188 3.512h3.672zM136.151 232.945c-.414.197-1.333.504-2.503.504-2.629 0-4.339-1.782-4.339-4.447 0-2.683 1.837-4.646 4.682-4.646.936 0 1.765.234 2.196.468l-.36 1.207c-.378-.198-.972-.415-1.836-.415-1.999 0-3.079 1.495-3.079 3.296 0 2.017 1.296 3.259 3.025 3.259.9 0 1.495-.217 1.945-.414l.269 1.188zM144.107 232.945c-.414.197-1.333.504-2.503.504-2.629 0-4.339-1.782-4.339-4.447 0-2.683 1.837-4.646 4.682-4.646.936 0 1.765.234 2.196.468l-.36 1.207c-.378-.198-.972-.415-1.836-.415-1.999 0-3.079 1.495-3.079 3.296 0 2.017 1.296 3.259 3.025 3.259.9 0 1.495-.217 1.945-.414l.269 1.188zM146.733 229.181c.036 2.143 1.386 3.025 2.989 3.025 1.134 0 1.836-.198 2.413-.45l.288 1.134c-.558.252-1.53.559-2.917.559-2.683 0-4.285-1.782-4.285-4.411s1.549-4.682 4.087-4.682c2.863 0 3.601 2.484 3.601 4.087 0 .324-.018.559-.054.738h-6.122zm4.646-1.134c.018-.99-.415-2.558-2.197-2.558-1.621 0-2.305 1.459-2.431 2.558h4.628zM154.869 220.466h1.584v12.784h-1.584v-12.784zM159.999 229.181c.036 2.143 1.386 3.025 2.989 3.025 1.134 0 1.836-.198 2.413-.45l.288 1.134c-.558.252-1.53.559-2.917.559-2.683 0-4.286-1.782-4.286-4.411s1.548-4.682 4.087-4.682c2.863 0 3.601 2.484 3.601 4.087 0 .324-.018.559-.054.738h-6.121zm4.645-1.134c.018-.99-.414-2.558-2.196-2.558-1.621 0-2.305 1.459-2.431 2.558h4.627zM168.135 227.254c0-1.026-.018-1.908-.072-2.719h1.387l.072 1.729h.054c.396-1.17 1.368-1.908 2.431-1.908.162 0 .288.018.432.036v1.494c-.162-.036-.324-.036-.54-.036-1.116 0-1.909.828-2.125 2.017a4.739 4.739 0 00-.054.738v4.646h-1.584v-5.997zM180.052 231.161c0 .757.036 1.495.126 2.089h-1.422l-.126-1.099h-.054c-.486.685-1.422 1.297-2.665 1.297-1.765 0-2.665-1.242-2.665-2.503 0-2.106 1.873-3.259 5.239-3.241v-.18c0-.702-.198-2.017-1.98-1.999-.828 0-1.674.234-2.287.648l-.36-1.063c.72-.45 1.783-.756 2.881-.756 2.665 0 3.313 1.818 3.313 3.547v3.26zm-1.53-2.358c-1.729-.036-3.691.27-3.691 1.963 0 1.044.684 1.512 1.476 1.512 1.152 0 1.891-.72 2.143-1.458.054-.18.072-.36.072-.504v-1.513zM184.443 222.448v2.088h2.269v1.207h-2.269v4.699c0 1.08.306 1.692 1.188 1.692.432 0 .685-.036.918-.108l.072 1.207a4.348 4.348 0 01-1.405.216c-.738 0-1.333-.252-1.71-.666-.432-.486-.612-1.261-.612-2.287v-4.753h-1.35v-1.207h1.35v-1.62l1.549-.468zM190.257 222.087c0 .54-.378.972-1.008.972-.576 0-.955-.432-.955-.972s.396-.99.99-.99c.577 0 .973.432.973.99zm-1.765 11.163v-8.715h1.584v8.715h-1.584zM200.591 228.821c0 3.224-2.25 4.628-4.339 4.628-2.34 0-4.177-1.729-4.177-4.483 0-2.899 1.927-4.609 4.321-4.609 2.502-.001 4.195 1.817 4.195 4.464zm-6.896.09c0 1.908 1.081 3.349 2.629 3.349 1.512 0 2.646-1.423 2.646-3.385 0-1.477-.738-3.331-2.611-3.331-1.854 0-2.664 1.729-2.664 3.367zM202.586 226.895c0-.919-.018-1.639-.072-2.359h1.405l.09 1.44h.036c.432-.81 1.44-1.62 2.881-1.62 1.206 0 3.079.72 3.079 3.709v5.186h-1.584v-5.023c0-1.404-.522-2.575-2.017-2.575-1.026 0-1.836.738-2.125 1.621a2.278 2.278 0 00-.108.738v5.239h-1.584v-6.356zM218.463 233.25l-3.979-12.136h1.71l1.891 5.978c.504 1.639.954 3.115 1.296 4.538h.036c.342-1.405.829-2.936 1.387-4.52l2.053-5.996h1.674l-4.339 12.136h-1.729zM233.08 228.821c0 3.224-2.25 4.628-4.339 4.628-2.341 0-4.177-1.729-4.177-4.483 0-2.899 1.927-4.609 4.321-4.609 2.503-.001 4.195 1.817 4.195 4.464zm-6.896.09c0 1.908 1.08 3.349 2.629 3.349 1.512 0 2.646-1.423 2.646-3.385 0-1.477-.738-3.331-2.61-3.331-1.855 0-2.665 1.729-2.665 3.367zM235.076 220.466h1.584v12.784h-1.584v-12.784zM241.233 222.448v2.088h2.269v1.207h-2.269v4.699c0 1.08.306 1.692 1.188 1.692.432 0 .685-.036.918-.108l.072 1.207a4.346 4.346 0 01-1.404.216c-.738 0-1.332-.252-1.71-.666-.432-.486-.612-1.261-.612-2.287v-4.753h-1.35v-1.207h1.35v-1.62l1.548-.468zM251.404 231.161c0 .757.036 1.495.126 2.089h-1.423l-.126-1.099h-.054c-.486.685-1.423 1.297-2.665 1.297-1.765 0-2.665-1.242-2.665-2.503 0-2.106 1.873-3.259 5.239-3.241v-.18c0-.702-.198-2.017-1.98-1.999-.828 0-1.674.234-2.287.648l-.36-1.063c.72-.45 1.783-.756 2.881-.756 2.665 0 3.313 1.818 3.313 3.547v3.26zm-1.531-2.358c-1.729-.036-3.691.27-3.691 1.963 0 1.044.684 1.512 1.476 1.512 1.152 0 1.891-.72 2.143-1.458.054-.18.072-.36.072-.504v-1.513zM261.412 231.972c0 2.017-.414 3.223-1.242 3.997-.864.774-2.089 1.044-3.187 1.044-1.044 0-2.197-.252-2.899-.72l.396-1.225c.576.378 1.477.702 2.557.702 1.62 0 2.809-.846 2.809-3.061v-.954h-.036c-.468.81-1.422 1.458-2.772 1.458-2.161 0-3.709-1.837-3.709-4.249 0-2.953 1.927-4.609 3.943-4.609 1.512 0 2.323.774 2.719 1.494h.036l.054-1.314h1.405c-.054.612-.072 1.333-.072 2.377v5.06zm-1.585-3.997c0-.271-.018-.504-.09-.702-.288-.937-1.044-1.692-2.215-1.692-1.512 0-2.593 1.278-2.593 3.295 0 1.71.882 3.133 2.575 3.133.99 0 1.873-.612 2.197-1.621.09-.27.126-.576.126-.846v-1.567zM264.902 229.181c.036 2.143 1.386 3.025 2.989 3.025 1.134 0 1.836-.198 2.413-.45l.288 1.134c-.558.252-1.53.559-2.917.559-2.683 0-4.285-1.782-4.285-4.411s1.549-4.682 4.087-4.682c2.863 0 3.601 2.484 3.601 4.087 0 .324-.018.559-.054.738h-6.122zm4.646-1.134c.018-.99-.415-2.558-2.197-2.558-1.621 0-2.305 1.459-2.431 2.558h4.628zM279.147 233.25l-1.848-14.83h3.278l.66 7.063c.154 1.585.264 3.015.352 4.555h.044c.55-1.452 1.254-3.036 1.98-4.576l3.322-7.041h3.542l-7.657 14.83h-3.673z" />
	</g>
	<g>
		<path fill="#1D1D1B"
			d="M295.081 235.394c0 .672.032 1.328.112 1.856h-1.265l-.112-.977h-.048c-.432.608-1.265 1.152-2.369 1.152-1.569 0-2.369-1.104-2.369-2.225 0-1.873 1.665-2.897 4.658-2.881v-.16c0-.624-.176-1.793-1.761-1.777-.736 0-1.489.209-2.033.576l-.32-.944c.64-.399 1.584-.672 2.561-.672 2.369 0 2.945 1.616 2.945 3.153v2.899zm-1.361-2.097c-1.537-.032-3.281.239-3.281 1.744 0 .929.608 1.345 1.313 1.345 1.024 0 1.681-.641 1.905-1.297.048-.16.064-.32.064-.448v-1.344z" />
	</g>
	<g fill="#1D1D1B">
		<path
			d="M760.169 82.357a18.154 18.154 0 013.007-.234c1.549 0 2.683.36 3.402 1.008.648.576 1.063 1.459 1.063 2.539 0 1.099-.324 1.963-.936 2.593-.847.883-2.18 1.332-3.709 1.332-.469 0-.9-.018-1.261-.107v4.861h-1.566V82.357zm1.566 5.851c.342.09.774.126 1.296.126 1.891 0 3.043-.937 3.043-2.575 0-1.62-1.152-2.395-2.863-2.395-.684 0-1.205.054-1.476.126v4.718zM769.601 81.564h1.584v12.784h-1.584V81.564zM779.97 92.259c0 .757.036 1.495.126 2.089h-1.423l-.125-1.099h-.055c-.486.685-1.422 1.297-2.664 1.297-1.766 0-2.665-1.242-2.665-2.503 0-2.106 1.872-3.259 5.239-3.241v-.18c0-.702-.197-2.017-1.98-1.999-.828 0-1.674.234-2.287.648l-.359-1.063c.72-.45 1.782-.756 2.881-.756 2.664 0 3.313 1.818 3.313 3.547v3.26zm-1.53-2.358c-1.729-.036-3.69.27-3.69 1.963 0 1.044.684 1.512 1.476 1.512 1.152 0 1.891-.72 2.143-1.458.054-.18.072-.36.072-.504v-1.513zM784.361 83.545v2.088h2.27v1.207h-2.27v4.699c0 1.08.307 1.692 1.188 1.692.433 0 .685-.036.919-.108l.071 1.207a4.346 4.346 0 01-1.404.216c-.738 0-1.332-.252-1.71-.666-.433-.486-.613-1.261-.613-2.287V86.84h-1.35v-1.207h1.35v-1.62l1.549-.468zM789.185 90.279c.036 2.143 1.387 3.025 2.988 3.025 1.135 0 1.837-.198 2.413-.45l.288 1.134c-.559.252-1.53.559-2.917.559-2.683 0-4.285-1.782-4.285-4.411s1.549-4.682 4.087-4.682c2.863 0 3.602 2.484 3.602 4.087 0 .324-.018.559-.055.738h-6.121zm4.646-1.134c.018-.99-.415-2.558-2.196-2.558-1.621 0-2.305 1.459-2.432 2.558h4.628zM803.208 94.348l-3.979-12.136h1.711l1.891 5.978c.504 1.639.954 3.115 1.297 4.538h.035c.342-1.405.828-2.936 1.387-4.52l2.053-5.996h1.674l-4.339 12.136h-1.73zM817.826 89.918c0 3.224-2.251 4.628-4.34 4.628-2.341 0-4.178-1.729-4.178-4.483 0-2.899 1.928-4.609 4.322-4.609 2.503-.001 4.196 1.818 4.196 4.464zm-6.897.091c0 1.908 1.08 3.349 2.629 3.349 1.512 0 2.646-1.423 2.646-3.385 0-1.477-.738-3.331-2.61-3.331-1.854 0-2.665 1.728-2.665 3.367zM819.821 81.564h1.585v12.784h-1.585V81.564zM825.978 83.545v2.088h2.268v1.207h-2.268v4.699c0 1.08.306 1.692 1.188 1.692.432 0 .685-.036.918-.108l.072 1.207a4.346 4.346 0 01-1.404.216c-.738 0-1.332-.252-1.711-.666-.432-.486-.611-1.261-.611-2.287V86.84h-1.351v-1.207h1.351v-1.62l1.548-.468zM836.148 92.259c0 .757.037 1.495.127 2.089h-1.423l-.126-1.099h-.054c-.486.685-1.423 1.297-2.665 1.297-1.765 0-2.664-1.242-2.664-2.503 0-2.106 1.872-3.259 5.238-3.241v-.18c0-.702-.197-2.017-1.98-1.999-.828 0-1.674.234-2.286.648l-.36-1.063c.721-.45 1.783-.756 2.881-.756 2.665 0 3.313 1.818 3.313 3.547v3.26zm-1.529-2.358c-1.729-.036-3.691.27-3.691 1.963 0 1.044.684 1.512 1.477 1.512 1.152 0 1.891-.72 2.143-1.458.054-.18.072-.36.072-.504v-1.513zM846.157 93.07c0 2.017-.414 3.223-1.242 3.997-.864.774-2.089 1.044-3.187 1.044-1.045 0-2.197-.252-2.899-.72l.396-1.225c.576.378 1.477.702 2.558.702 1.62 0 2.809-.846 2.809-3.061v-.954h-.036c-.468.81-1.422 1.458-2.772 1.458-2.161 0-3.71-1.837-3.71-4.249 0-2.953 1.928-4.609 3.943-4.609 1.513 0 2.323.774 2.719 1.494h.037l.053-1.314h1.405c-.054.612-.072 1.333-.072 2.377v5.06zm-1.585-3.997c0-.271-.018-.504-.09-.702-.287-.937-1.044-1.692-2.215-1.692-1.512 0-2.592 1.278-2.592 3.295 0 1.71.882 3.133 2.574 3.133.99 0 1.873-.612 2.197-1.621.09-.27.125-.576.125-.846v-1.567zM849.647 90.279c.036 2.143 1.386 3.025 2.989 3.025 1.134 0 1.836-.198 2.412-.45l.288 1.134c-.558.252-1.53.559-2.917.559-2.683 0-4.285-1.782-4.285-4.411s1.549-4.682 4.088-4.682c2.862 0 3.601 2.484 3.601 4.087 0 .324-.019.559-.054.738h-6.122zm4.646-1.134c.018-.99-.414-2.558-2.197-2.558-1.62 0-2.305 1.459-2.43 2.558h4.627zM863.891 94.348l-1.849-14.83h3.279l.66 7.063c.154 1.585.264 3.015.352 4.555h.044c.55-1.452 1.255-3.036 1.98-4.576l3.322-7.041h3.542l-7.656 14.83h-3.674z" />
	</g>
	<g>
		<path fill="#1D1D1B"
			d="M875.867 95.246c0-.993-.033-1.793-.064-2.529h1.248l.08 1.328h.032c.561-.944 1.489-1.488 2.753-1.488 1.889 0 3.298 1.585 3.298 3.922 0 2.785-1.713 4.161-3.538 4.161-1.023 0-1.92-.448-2.385-1.216h-.031v4.209h-1.393v-8.387zm1.393 2.065c0 .208.016.4.063.576.257.977 1.104 1.648 2.112 1.648 1.489 0 2.354-1.216 2.354-2.993 0-1.536-.816-2.865-2.305-2.865-.961 0-1.873.673-2.129 1.729a2.237 2.237 0 00-.096.56v1.345z" />
	</g>
</svg>